<svg width="288" height="288" viewBox="0 0 288 288" fill="none" xmlns="http://www.w3.org/2000/svg">
<path fill-rule="evenodd" clip-rule="evenodd" d="M144 273.6C215.575 273.6 273.6 215.575 273.6 144C273.6 72.4248 215.575 14.4 144 14.4C72.4248 14.4 14.4 72.4248 14.4 144C14.4 215.575 72.4248 273.6 144 273.6ZM144 288C223.531 288 288 223.531 288 144C288 64.4688 223.531 0 144 0C64.4688 0 0 64.4688 0 144C0 223.531 64.4688 288 144 288Z" fill="#C5C5C5"/>
<path d="M57.5996 227.737C57.5996 220.299 63.158 214.013 70.5596 213.193C126.108 207.044 162.144 207.598 217.569 213.329C220.337 213.62 222.96 214.71 225.118 216.467C227.277 218.224 228.877 220.572 229.723 223.223C230.569 225.874 230.624 228.715 229.883 231.397C229.141 234.079 227.635 236.488 225.547 238.328C160.135 295.345 122.752 294.56 62.2076 238.385C59.2556 235.649 57.5996 231.754 57.5996 227.737Z" fill="#C5C5C5"/>
<path fill-rule="evenodd" clip-rule="evenodd" d="M216.828 220.485C161.842 214.797 126.324 214.265 71.3452 220.349C69.5355 220.56 67.8671 221.431 66.6595 222.795C65.4519 224.159 64.79 225.921 64.8004 227.743C64.8004 229.802 65.6572 231.753 67.1044 233.107C97.114 260.942 119.852 273.521 142.078 273.6C164.384 273.679 188.345 261.201 220.817 232.905C221.849 231.987 222.591 230.789 222.955 229.457C223.318 228.124 223.287 226.715 222.864 225.4C222.442 224.085 221.646 222.922 220.575 222.05C219.503 221.179 218.202 220.631 216.828 220.485ZM69.7684 206.035C125.9 199.821 162.461 200.383 218.319 206.165C222.483 206.599 226.429 208.238 229.676 210.882C232.922 213.525 235.328 217.057 236.598 221.046C237.867 225.035 237.947 229.308 236.826 233.342C235.704 237.375 233.432 240.994 230.285 243.756C197.345 272.469 169.913 288.108 142.035 288C114.077 287.899 87.8548 271.994 57.3196 243.662C55.1334 241.626 53.3905 239.161 52.2 236.42C51.0095 233.68 50.3969 230.724 50.4004 227.736C50.3899 222.368 52.3603 217.184 55.9341 213.179C59.5079 209.173 64.4339 206.634 69.7684 206.035Z" fill="#C5C5C5"/>
<path d="M201.6 115.2C201.6 130.476 195.532 145.127 184.73 155.929C173.928 166.731 159.277 172.8 144 172.8C128.724 172.8 114.073 166.731 103.271 155.929C92.4689 145.127 86.4004 130.476 86.4004 115.2C86.4004 99.9231 92.4689 85.2724 103.271 74.4703C114.073 63.6682 128.724 57.5996 144 57.5996C159.277 57.5996 173.928 63.6682 184.73 74.4703C195.532 85.2724 201.6 99.9231 201.6 115.2Z" fill="#C5C5C5"/>
<path fill-rule="evenodd" clip-rule="evenodd" d="M144 158.4C155.458 158.4 166.446 153.848 174.547 145.747C182.649 137.645 187.2 126.657 187.2 115.2C187.2 103.742 182.649 92.7542 174.547 84.6526C166.446 76.551 155.458 71.9996 144 71.9996C132.543 71.9996 121.555 76.551 113.453 84.6526C105.352 92.7542 100.8 103.742 100.8 115.2C100.8 126.657 105.352 137.645 113.453 145.747C121.555 153.848 132.543 158.4 144 158.4ZM144 172.8C159.277 172.8 173.928 166.731 184.73 155.929C195.532 145.127 201.6 130.476 201.6 115.2C201.6 99.9231 195.532 85.2724 184.73 74.4703C173.928 63.6682 159.277 57.5996 144 57.5996C128.724 57.5996 114.073 63.6682 103.271 74.4703C92.4689 85.2724 86.4004 99.9231 86.4004 115.2C86.4004 130.476 92.4689 145.127 103.271 155.929C114.073 166.731 128.724 172.8 144 172.8Z" fill="#C5C5C5"/>
</svg>
