<svg width="221" height="47" viewBox="0 0 221 47" fill="none" xmlns="http://www.w3.org/2000/svg">
<g clip-path="url(#clip0_662_19)">
<path d="M9.53304 45.0395C12.3872 43.9797 15.4728 43.5558 18.404 43.1319C20.1011 42.92 21.721 42.814 23.4181 42.708C25.8094 42.4961 28.2007 42.3901 30.6692 42.3901C35.2975 42.2841 39.8487 42.1781 44.4771 42.1781C53.6566 42.1781 62.8362 42.0722 72.0929 41.4363C81.6581 40.8004 91.1462 40.1646 100.711 39.5287C109.737 38.8929 118.762 38.257 127.864 37.8331C136.89 37.3033 145.992 36.8794 155.017 36.1375C164.274 35.2897 173.531 34.8658 182.787 34.5479C187.184 34.336 191.581 34.124 195.978 33.4882C198.292 33.1702 200.529 32.7463 202.844 32.3224C205.081 31.8985 207.318 31.6866 209.555 31.3687C211.637 31.0507 213.643 31.1567 215.726 31.3687C217.191 31.1567 218.349 30.097 219.12 28.2954C219.506 27.1297 219.969 26.0699 220.354 24.9042C221.126 21.9369 221.511 18.8636 221.434 15.6843C221.434 12.5051 221.126 9.43179 220.354 6.46449C219.969 5.29876 219.506 4.23901 219.12 3.07328C218.349 1.2717 217.269 0.317926 215.726 0C214.569 0.105975 213.489 0.317926 212.332 0.423901C211.329 0.529876 210.249 0.529876 209.246 0.529876C207.009 0.529876 204.849 0.635851 202.612 0.741826C197.984 0.953777 193.433 1.37768 188.804 1.58963C179.856 1.90755 170.908 2.01353 162.037 2.75536C157.254 3.17926 152.472 3.60316 147.689 3.92108C143.369 4.23901 138.972 4.45096 134.653 4.66291C125.396 5.08681 116.139 5.72266 106.883 6.35851C97.7802 6.99436 88.6006 7.63021 79.4982 8.26607C74.4842 8.58399 69.393 9.00789 64.3789 9.32582C59.8277 9.64374 55.3537 9.64374 50.8025 9.74972C41.5458 9.85569 32.2891 9.96167 23.0324 10.7035C20.7182 10.9154 18.4812 11.1274 16.2441 11.5513C14.3928 11.8692 12.5415 12.2931 10.7673 12.823C9.37877 13.2469 7.99026 13.8828 6.6789 14.5186C5.90751 14.8365 5.13612 15.4724 4.44186 16.1082C3.05336 17.5919 2.12769 19.4994 1.58772 21.8309C0.353491 26.2818 0.199213 31.5806 0.739187 36.2435C1.04774 38.9989 1.742 41.6483 2.82194 43.9797C3.36192 44.7215 3.90189 45.4634 4.44186 46.2052C5.67609 47.2649 6.91032 47.2649 8.0674 46.2052C8.37596 45.7813 8.99307 45.3574 9.53304 45.0395Z" fill="#FFEBE7"/>
</g>
<defs>
<clipPath id="clip0_662_19">
<rect width="221" height="47" fill="white"/>
</clipPath>
</defs>
</svg>
