<svg width="20" height="20" viewBox="0 0 20 20" fill="none" xmlns="http://www.w3.org/2000/svg">
<path d="M17.9168 3.33325H16.1112V4.44436H17.7779V16.6666H2.22234V4.44436H3.889V3.33325H2.08345C1.95358 3.33542 1.82541 3.36316 1.70626 3.41487C1.58712 3.46658 1.47932 3.54126 1.38904 3.63464C1.29876 3.72801 1.22775 3.83826 1.18009 3.95909C1.13242 4.07991 1.10902 4.20894 1.11123 4.33881V16.7721C1.10902 16.902 1.13242 17.031 1.18009 17.1519C1.22775 17.2727 1.29876 17.3829 1.38904 17.4763C1.47932 17.5697 1.58712 17.6444 1.70626 17.6961C1.82541 17.7478 1.95358 17.7755 2.08345 17.7777H17.9168C18.0466 17.7755 18.1748 17.7478 18.294 17.6961C18.4131 17.6444 18.5209 17.5697 18.6112 17.4763C18.7015 17.3829 18.7725 17.2727 18.8201 17.1519C18.8678 17.031 18.8912 16.902 18.889 16.7721V4.33881C18.8912 4.20894 18.8678 4.07991 18.8201 3.95909C18.7725 3.83826 18.7015 3.72801 18.6112 3.63464C18.5209 3.54126 18.4131 3.46658 18.294 3.41487C18.1748 3.36316 18.0466 3.33542 17.9168 3.33325Z" fill="#B4B4B4"/>
<path d="M4.44458 7.77777H5.55569V8.88888H4.44458V7.77777Z" fill="#B4B4B4"/>
<path d="M7.77783 7.77777H8.88894V8.88888H7.77783V7.77777Z" fill="#B4B4B4"/>
<path d="M11.1111 7.77777H12.2222V8.88888H11.1111V7.77777Z" fill="#B4B4B4"/>
<path d="M14.4446 7.77777H15.5557V8.88888H14.4446V7.77777Z" fill="#B4B4B4"/>
<path d="M4.44458 10.5555H5.55569V11.6667H4.44458V10.5555Z" fill="#B4B4B4"/>
<path d="M7.77783 10.5555H8.88894V11.6667H7.77783V10.5555Z" fill="#B4B4B4"/>
<path d="M11.1111 10.5555H12.2222V11.6667H11.1111V10.5555Z" fill="#B4B4B4"/>
<path d="M14.4446 10.5555H15.5557V11.6667H14.4446V10.5555Z" fill="#B4B4B4"/>
<path d="M4.44458 13.3333H5.55569V14.4444H4.44458V13.3333Z" fill="#B4B4B4"/>
<path d="M7.77783 13.3333H8.88894V14.4444H7.77783V13.3333Z" fill="#B4B4B4"/>
<path d="M11.1111 13.3333H12.2222V14.4444H11.1111V13.3333Z" fill="#B4B4B4"/>
<path d="M14.4446 13.3333H15.5557V14.4444H14.4446V13.3333Z" fill="#B4B4B4"/>
<path d="M5.55556 5.55547C5.7029 5.55547 5.84421 5.49694 5.94839 5.39275C6.05258 5.28856 6.11111 5.14725 6.11111 4.99991V1.66658C6.11111 1.51924 6.05258 1.37793 5.94839 1.27374C5.84421 1.16955 5.7029 1.11102 5.55556 1.11102C5.40821 1.11102 5.26691 1.16955 5.16272 1.27374C5.05853 1.37793 5 1.51924 5 1.66658V4.99991C5 5.14725 5.05853 5.28856 5.16272 5.39275C5.26691 5.49694 5.40821 5.55547 5.55556 5.55547Z" fill="#B4B4B4"/>
<path d="M14.4445 5.55547C14.5918 5.55547 14.7331 5.49694 14.8373 5.39275C14.9415 5.28856 15 5.14725 15 4.99991V1.66658C15 1.51924 14.9415 1.37793 14.8373 1.27374C14.7331 1.16955 14.5918 1.11102 14.4445 1.11102C14.2971 1.11102 14.1558 1.16955 14.0516 1.27374C13.9474 1.37793 13.8889 1.51924 13.8889 1.66658V4.99991C13.8889 5.14725 13.9474 5.28856 14.0516 5.39275C14.1558 5.49694 14.2971 5.55547 14.4445 5.55547Z" fill="#B4B4B4"/>
<path d="M7.22217 3.33325H12.7777V4.44436H7.22217V3.33325Z" fill="#B4B4B4"/>
</svg>
