<svg width="18" height="12" viewBox="0 0 18 12" fill="none" xmlns="http://www.w3.org/2000/svg">
<path d="M1.02319 12H12.2783C12.841 12 13.3015 11.55 13.3015 11C13.3015 10.45 12.841 10 12.2783 10H1.02319C0.460436 10 0 10.45 0 11C0 11.55 0.460436 12 1.02319 12ZM1.02319 7H9.20872C9.77148 7 10.2319 6.55 10.2319 6C10.2319 5.45 9.77148 5 9.20872 5H1.02319C0.460436 5 0 5.45 0 6C0 6.55 0.460436 7 1.02319 7ZM0 1C0 1.55 0.460436 2 1.02319 2H12.2783C12.841 2 13.3015 1.55 13.3015 1C13.3015 0.45 12.841 0 12.2783 0H1.02319C0.460436 0 0 0.45 0 1ZM17.7012 8.88L14.7544 6L17.7012 3.12C17.7959 3.02742 17.8711 2.91751 17.9223 2.79654C17.9736 2.67558 18 2.54593 18 2.415C18 2.28407 17.9736 2.15442 17.9223 2.03346C17.8711 1.91249 17.7959 1.80258 17.7012 1.71C17.6065 1.61742 17.494 1.54398 17.3702 1.49387C17.2465 1.44377 17.1138 1.41798 16.9799 1.41798C16.8459 1.41798 16.7132 1.44377 16.5895 1.49387C16.4657 1.54398 16.3532 1.61742 16.2585 1.71L12.5853 5.3C12.4904 5.39251 12.4151 5.5024 12.3638 5.62338C12.3125 5.74435 12.286 5.87403 12.286 6.005C12.286 6.13597 12.3125 6.26565 12.3638 6.38662C12.4151 6.5076 12.4904 6.61749 12.5853 6.71L16.2585 10.3C16.6576 10.69 17.3022 10.69 17.7012 10.3C18.09 9.91 18.1003 9.27 17.7012 8.88Z" fill="#142B33"/>
</svg>
