<svg width="75" height="55" viewBox="0 0 75 55" fill="none" xmlns="http://www.w3.org/2000/svg">
<path d="M18.9375 54.5C13.8075 54.5 9.43125 52.7337 5.80875 49.2013C2.18625 45.6463 0.375 41.315 0.375 36.2075C0.375 31.82 1.69125 27.905 4.32375 24.4625C6.97875 21.02 10.4438 18.8262 14.7188 17.8812C16.1362 12.7062 18.9487 8.52125 23.1562 5.32625C27.3862 2.10875 32.1675 0.5 37.5 0.5C44.0925 0.5 49.6725 2.795 54.24 7.385C58.83 11.9525 61.125 17.5325 61.125 24.125C65.0175 24.575 68.235 26.2625 70.7775 29.1875C73.3425 32.0675 74.625 35.4425 74.625 39.3125C74.625 43.5425 73.1513 47.1313 70.2038 50.0788C67.2562 53.0263 63.6675 54.5 59.4375 54.5H40.875C39.03 54.5 37.4438 53.8363 36.1162 52.5088C34.7887 51.2038 34.125 49.6175 34.125 47.75V30.3688L28.725 35.6L24 30.875L37.5 17.375L51 30.875L46.275 35.6L40.875 30.3688V47.75H59.4375C61.8 47.75 63.7913 46.9288 65.4113 45.2863C67.0537 43.6663 67.875 41.675 67.875 39.3125C67.875 36.95 67.0537 34.9587 65.4113 33.3387C63.7913 31.6962 61.8 30.875 59.4375 30.875H54.375V24.125C54.375 19.4675 52.7325 15.485 49.4475 12.1775C46.1625 8.8925 42.18 7.25 37.5 7.25C32.8425 7.25 28.86 8.8925 25.5525 12.1775C22.2675 15.485 20.625 19.4675 20.625 24.125H18.9375C15.675 24.125 12.8963 25.2837 10.6013 27.6012C8.28375 29.8962 7.125 32.675 7.125 35.9375C7.125 39.2 8.28375 42.0125 10.6013 44.375C12.8963 46.625 15.675 47.75 18.9375 47.75H27.375V54.5" fill="#565656"/>
</svg>
