<svg width="25" height="25" viewBox="0 0 25 25" fill="none" xmlns="http://www.w3.org/2000/svg">
<path d="M12.5 21.875V19.6615L18.0208 14.1406L20.2344 16.3542L14.7135 21.875H12.5ZM3.125 16.6667V14.5833H10.4167V16.6667H3.125ZM20.9635 15.625L18.75 13.4115L19.5052 12.6562C19.6962 12.4653 19.9392 12.3698 20.2344 12.3698C20.5295 12.3698 20.7726 12.4653 20.9635 12.6562L21.7188 13.4115C21.9097 13.6024 22.0052 13.8455 22.0052 14.1406C22.0052 14.4358 21.9097 14.6788 21.7188 14.8698L20.9635 15.625ZM3.125 12.5V10.4167H14.5833V12.5H3.125ZM3.125 8.33333V6.25H14.5833V8.33333H3.125Z" fill="#B3B3B3"/>
</svg>
