<svg width="18" height="12" viewBox="0 0 18 12" fill="none" xmlns="http://www.w3.org/2000/svg">
<path d="M16.9768 12H5.72171C5.15895 12 4.69852 11.55 4.69852 11C4.69852 10.45 5.15895 10 5.72171 10H16.9768C17.5396 10 18 10.45 18 11C18 11.55 17.5396 12 16.9768 12ZM16.9768 7H8.79128C8.22852 7 7.76809 6.55 7.76809 6C7.76809 5.45 8.22852 5 8.79128 5H16.9768C17.5396 5 18 5.45 18 6C18 6.55 17.5396 7 16.9768 7ZM18 1C18 1.55 17.5396 2 16.9768 2H5.72171C5.15895 2 4.69852 1.55 4.69852 1C4.69852 0.45 5.15895 0 5.72171 0H16.9768C17.5396 0 18 0.45 18 1ZM0.298793 8.88L3.24558 6L0.298793 3.12C0.204064 3.02742 0.128921 2.91751 0.0776545 2.79654C0.0263875 2.67558 4.76512e-07 2.54593 4.73871e-07 2.415C4.7123e-07 2.28407 0.0263875 2.15442 0.0776545 2.03346C0.128921 1.91249 0.204064 1.80258 0.298793 1.71C0.393522 1.61742 0.505981 1.54398 0.62975 1.49387C0.75352 1.44377 0.886176 1.41798 1.02014 1.41798C1.15411 1.41798 1.28677 1.44377 1.41053 1.49387C1.5343 1.54398 1.64676 1.61742 1.74149 1.71L5.41475 5.3C5.5096 5.39251 5.58486 5.5024 5.6362 5.62338C5.68755 5.74435 5.71398 5.87403 5.71398 6.005C5.71398 6.13597 5.68755 6.26565 5.6362 6.38662C5.58486 6.5076 5.5096 6.61749 5.41475 6.71L1.74149 10.3C1.34245 10.69 0.697838 10.69 0.298793 10.3C-0.0900193 9.91 -0.100251 9.27 0.298793 8.88Z" fill="#142B33"/>
</svg>
