<svg width="40" height="34" viewBox="0 0 40 34" fill="none" xmlns="http://www.w3.org/2000/svg">
<path d="M26.5714 34L18.4762 25.9722L21.1429 23.3278L26.5714 28.7111L37.3333 18.0389L40 20.6833L26.5714 34ZM3.80953 30.2222C2.76191 30.2222 1.86476 29.852 1.1181 29.1116C0.371432 28.3711 -0.00126661 27.4821 3.23389e-06 26.4444V3.77778C3.23389e-06 2.73889 0.373337 1.84923 1.12 1.10878C1.86667 0.368336 2.76318 -0.00125605 3.80953 3.20694e-06H34.2857C35.3333 3.20694e-06 36.2305 0.370225 36.9771 1.11067C37.7238 1.85111 38.0965 2.74015 38.0952 3.77778V11.9944L26.6191 23.375L21.1429 17.9444L13.0952 25.925L17.4286 30.2222H3.80953ZM19.0476 17L34.2857 7.55556V3.77778L19.0476 13.2222L3.80953 3.77778V7.55556L19.0476 17Z" fill="#142B33"/>
</svg>
