<svg width="11" height="17" viewBox="0 0 11 17" fill="none" xmlns="http://www.w3.org/2000/svg">
<path d="M1.92384 10.685C1.92384 12.4905 3.77534 13.491 7.50134 13.7095L10.4338 13.6635L10.8593 13.721C10.8248 13.882 10.5258 14.181 9.97384 14.595L9.85884 14.6755C8.51307 15.8083 6.83199 16.467 5.07484 16.55C4.41053 16.5834 3.74629 16.4825 3.12188 16.2533C2.49746 16.0241 1.92571 15.6713 1.44084 15.216C0.993107 14.7296 0.647423 14.1585 0.42422 13.5363C0.201018 12.9141 0.104828 12.2535 0.141338 11.5935C0.141338 9.77645 0.900338 8.14345 2.39534 6.68295V6.62545L1.59034 5.88945C1.3889 5.65627 1.27862 5.35809 1.27984 5.04995C1.27984 4.38295 1.60184 3.55495 2.24584 2.54295C3.11984 1.13995 4.00534 0.449951 4.87934 0.449951C6.06384 0.449951 7.05284 1.01345 7.82334 2.11745C8.26034 2.76145 7.78884 2.86495 6.39734 2.41645C5.27034 1.97945 4.35034 2.34745 3.63734 3.52045L3.66034 3.63545L5.16684 4.78545H5.23584C7.12184 4.12995 8.47884 3.79645 9.31834 3.81945C9.18404 4.13972 9.07634 4.4705 8.99634 4.80845C8.86641 5.24796 8.72839 5.68503 8.58234 6.11945L8.42134 6.62545L7.90384 6.68295C5.55784 7.00495 3.87884 7.64895 2.87834 8.60345C2.58929 8.86254 2.3557 9.17749 2.19166 9.52929C2.02761 9.8811 1.93651 10.2625 1.92384 10.6505" fill="#F68E79"/>
</svg>
