<svg width="17" height="12" viewBox="0 0 17 12" fill="none" xmlns="http://www.w3.org/2000/svg">
<path d="M7 0.832V2.64H2.344V5.504H5.912V7.28H2.344V12H0.104V0.832H7ZM14.3484 12L11.8844 7.648H10.8284V12H8.58838V0.832H12.7804C13.6444 0.832 14.3804 0.986666 14.9884 1.296C15.5964 1.59467 16.0497 2.00533 16.3484 2.528C16.6577 3.04 16.8124 3.616 16.8124 4.256C16.8124 4.992 16.599 5.65867 16.1724 6.256C15.7457 6.84267 15.111 7.248 14.2684 7.472L16.9404 12H14.3484ZM10.8284 5.968H12.7004C13.3084 5.968 13.7617 5.824 14.0604 5.536C14.359 5.23733 14.5084 4.82667 14.5084 4.304C14.5084 3.792 14.359 3.39733 14.0604 3.12C13.7617 2.832 13.3084 2.688 12.7004 2.688H10.8284V5.968Z" fill="#F68E79"/>
</svg>
