<svg width="10" height="21" viewBox="0 0 10 21" fill="none" xmlns="http://www.w3.org/2000/svg">
<path d="M1.43945 2.67544L4.96133 0.557373L6.19219 0.827803L6.30898 2.39917L8.10137 1.36327L8.53262 2.31921L6.92891 3.62239C6.21914 4.91614 7.37812 5.71575 8.51016 6.52435C7.8498 7.75071 7.74648 9.15677 5.82832 9.97435C5.9541 10.4325 5.87324 11.1558 7.15351 11.0255C8.06992 12.3327 8.43828 12.4181 9.33672 12.4226L9.47598 14.781C8.41133 16.3083 7.25234 16.5644 6.11133 17.054L6.5875 18.779L4.79512 20.9083L3.51934 15.6345L1.77187 14.4261L0.428711 12.3507L0.00195312 10.1046L1.70449 8.37962L1.43945 2.67544Z" fill="#F68E79"/>
</svg>
