<svg width="19" height="12" viewBox="0 0 19 12" fill="none" xmlns="http://www.w3.org/2000/svg">
<path d="M4.008 0.832C5.18133 0.832 6.21067 1.06133 7.096 1.52C7.992 1.97867 8.68 2.63467 9.16 3.488C9.65067 4.33067 9.896 5.312 9.896 6.432C9.896 7.552 9.65067 8.53333 9.16 9.376C8.68 10.208 7.992 10.8533 7.096 11.312C6.21067 11.7707 5.18133 12 4.008 12H0.104V0.832H4.008ZM3.928 10.096C5.10133 10.096 6.008 9.776 6.648 9.136C7.288 8.496 7.608 7.59467 7.608 6.432C7.608 5.26933 7.288 4.36267 6.648 3.712C6.008 3.05067 5.10133 2.72 3.928 2.72H2.344V10.096H3.928ZM13.8128 2.64V5.44H17.5728V7.216H13.8128V10.176H18.0528V12H11.5728V0.815999H18.0528V2.64H13.8128Z" fill="#F68E79"/>
</svg>
