<svg width="18" height="16" viewBox="0 0 18 16" fill="none" xmlns="http://www.w3.org/2000/svg">
<path d="M16.998 0.00390625L16.6465 1.05859H11.4785L11.127 0.00390625H16.998ZM6.87305 0.00390625L6.52148 1.05859H1.35352L1.00195 0.00390625H6.87305ZM16.0277 1.69141L17.0895 12.3086H15.6445L15.6375 4.92578L14.4844 2.35586L13.3313 4.92578L13.3242 12.3086H12.6914V4.99609H11.7668L12.0973 1.69141H16.0277ZM5.90273 1.69141L6.2332 4.99609H5.30859V12.3086H4.67578L4.66875 4.92578L3.51562 2.35586L2.3625 4.92578L2.35547 12.3086H0.910547L1.97227 1.69141H5.90273ZM14.4844 3.76914L14.8148 4.43359H14.1539L14.4844 3.76914ZM3.51562 3.76914L3.84609 4.43359H3.18516L3.51562 3.76914ZM15.0117 5.06641V12.3086H13.957V5.06641H15.0117ZM4.04297 5.06641V12.3086H2.98828V5.06641H4.04297ZM12.0586 5.62891V6.68359H5.94141V5.62891H12.0586ZM12.0586 7.31641V12.3086H11.0039V8.37109H6.99609V12.3086H5.94141V7.31641H12.0586ZM17.1211 12.9414V15.1211H12.027L11.1551 12.9414H17.1211ZM10.473 12.9414L10.7684 13.6797H7.23164L7.52695 12.9414H10.473ZM6.84492 12.9414L5.97305 15.1211H0.878906V12.9414H6.84492ZM11.0215 14.3125L11.3449 15.1211H6.65508L6.97852 14.3125H11.0215Z" fill="#F68E79"/>
</svg>
