<svg width="21" height="17" viewBox="0 0 21 17" fill="none" xmlns="http://www.w3.org/2000/svg">
<path d="M18.375 9.5C18.1514 9.49994 17.9294 9.53823 17.7188 9.6132V9.5C17.7188 6.07273 15.17 4.37633 13.3088 3.13766C12.1538 2.3682 11.1562 1.70703 11.1562 0.96875C11.1562 0.794702 11.0871 0.627782 10.964 0.504711C10.841 0.38164 10.674 0.3125 10.5 0.3125C10.326 0.3125 10.159 0.38164 10.036 0.504711C9.91289 0.627782 9.84375 0.794702 9.84375 0.96875C9.84375 1.70703 8.84625 2.3682 7.69125 3.13766C5.82996 4.37633 3.28125 6.07273 3.28125 9.5V9.6132C2.98435 9.50823 2.6666 9.47602 2.35467 9.51926C2.04275 9.5625 1.74574 9.67993 1.48859 9.86171C1.23144 10.0435 1.02164 10.2843 0.876814 10.5639C0.731985 10.8435 0.656347 11.1538 0.65625 11.4688V16.0625C0.65625 16.2365 0.72539 16.4035 0.848461 16.5265C0.971532 16.6496 1.13845 16.7188 1.3125 16.7188H6.5625C6.73655 16.7188 6.90347 16.6496 7.02654 16.5265C7.14961 16.4035 7.21875 16.2365 7.21875 16.0625V13.4375C7.21875 13.2635 7.28789 13.0965 7.41096 12.9735C7.53403 12.8504 7.70095 12.7812 7.875 12.7812C8.04905 12.7812 8.21597 12.8504 8.33904 12.9735C8.46211 13.0965 8.53125 13.2635 8.53125 13.4375V16.0625C8.53125 16.2365 8.60039 16.4035 8.72346 16.5265C8.84653 16.6496 9.01345 16.7188 9.1875 16.7188H11.8125C11.9865 16.7188 12.1535 16.6496 12.2765 16.5265C12.3996 16.4035 12.4688 16.2365 12.4688 16.0625V13.4375C12.4688 13.2635 12.5379 13.0965 12.661 12.9735C12.784 12.8504 12.951 12.7812 13.125 12.7812C13.299 12.7812 13.466 12.8504 13.589 12.9735C13.7121 13.0965 13.7812 13.2635 13.7812 13.4375V16.0625C13.7812 16.2365 13.8504 16.4035 13.9735 16.5265C14.0965 16.6496 14.2635 16.7188 14.4375 16.7188H19.6875C19.8615 16.7188 20.0285 16.6496 20.1515 16.5265C20.2746 16.4035 20.3438 16.2365 20.3438 16.0625V11.4688C20.3438 10.9466 20.1363 10.4458 19.7671 10.0766C19.3979 9.70742 18.8971 9.5 18.375 9.5ZM8.41887 4.23031C9.21211 3.70203 9.97746 3.19016 10.5 2.58969C11.0201 3.19262 11.7879 3.70449 12.5811 4.23031C14.2218 5.32297 16.0658 6.55098 16.3636 8.84375H4.63313C4.93418 6.55098 6.77578 5.32297 8.41887 4.23031ZM1.96875 11.4688C1.96875 11.2947 2.03789 11.1278 2.16096 11.0047C2.28403 10.8816 2.45095 10.8125 2.625 10.8125C2.79905 10.8125 2.96597 10.8816 3.08904 11.0047C3.21211 11.1278 3.28125 11.2947 3.28125 11.4688V15.4062H1.96875V11.4688ZM13.125 11.4688C12.6029 11.4688 12.1021 11.6762 11.7329 12.0454C11.3637 12.4146 11.1562 12.9154 11.1562 13.4375V15.4062H9.84375V13.4375C9.84375 12.9154 9.63633 12.4146 9.26712 12.0454C8.8979 11.6762 8.39714 11.4688 7.875 11.4688C7.35286 11.4688 6.8521 11.6762 6.48288 12.0454C6.11367 12.4146 5.90625 12.9154 5.90625 13.4375V15.4062H4.59375V10.1562H16.4062V15.4062H15.0938V13.4375C15.0938 12.9154 14.8863 12.4146 14.5171 12.0454C14.1479 11.6762 13.6471 11.4688 13.125 11.4688ZM19.0312 15.4062H17.7188V11.4688C17.7188 11.2947 17.7879 11.1278 17.911 11.0047C18.034 10.8816 18.201 10.8125 18.375 10.8125C18.549 10.8125 18.716 10.8816 18.839 11.0047C18.9621 11.1278 19.0312 11.2947 19.0312 11.4688V15.4062Z" fill="#F68E79"/>
</svg>
