<svg width="21" height="24" viewBox="0 0 21 24" fill="none" xmlns="http://www.w3.org/2000/svg">
<path d="M5.29494 0.620605H3.21949V4.08463H0.106323V6.39398H3.21949V9.858H5.29494V6.39398H8.40811V4.08463H5.29494V0.620605ZM12.559 4.08463H20.8608V6.39398H12.559V4.08463ZM12.559 15.6314H20.8608V17.9407H12.559V15.6314ZM12.559 20.2501H20.8608V22.5594H12.559V20.2501ZM6.63361 14.8115L4.25722 17.4673L1.88083 14.8115L0.407263 16.4512L2.79403 19.0954L0.407263 21.7396L1.88083 23.3792L4.25722 20.7235L6.63361 23.3792L8.10717 21.7396L5.72041 19.0954L8.10717 16.4512L6.63361 14.8115Z" fill="#F68E79"/>
</svg>
