<svg width="17" height="20" viewBox="0 0 17 20" fill="none" xmlns="http://www.w3.org/2000/svg">
<path fill-rule="evenodd" clip-rule="evenodd" d="M1.708 11.35C2.333 9.42997 3.458 6.97097 5.465 4.96397C9.399 1.02997 15.117 0.448968 15.262 0.433968C15.4459 0.415534 15.6313 0.448159 15.7978 0.528255C15.9644 0.60835 16.1056 0.732816 16.206 0.887968C16.414 1.20097 17.586 3.17097 16.015 5.55097C15.9328 5.67316 15.8405 5.78823 15.739 5.89497C15.7523 6.01909 15.7421 6.1446 15.709 6.26497C15.519 6.95397 15.275 7.67697 14.959 8.39997C14.408 9.66297 13.631 10.94 12.536 12.036C10.486 14.086 7.794 15.027 5.692 15.466C4.74184 15.6641 3.77812 15.7904 2.809 15.844C2.778 16.09 2.5 18.57 2.5 19C2.5 19.2652 2.39464 19.5195 2.20711 19.7071C2.01957 19.8946 1.76522 20 1.5 20C1.23478 20 0.98043 19.8946 0.792893 19.7071C0.605357 19.5195 0.5 19.2652 0.5 19C0.5 18.429 0.616 17.33 0.721 16.44C0.926 14.708 1.167 13.013 1.708 11.35ZM14.345 4.44997C14.872 3.64997 14.865 2.96997 14.76 2.52997C13.233 2.80497 9.541 3.71597 6.879 6.37897C5.175 8.08197 4.179 10.219 3.61 11.969C3.41217 12.5763 3.24726 13.1939 3.116 13.819C3.84412 13.7612 4.56788 13.6576 5.283 13.509C7.203 13.107 9.461 12.281 11.121 10.621C11.971 9.77097 12.605 8.76397 13.075 7.71597C12.099 8.23597 11.057 8.70197 10.316 8.94897C10.1914 8.99047 10.0598 9.00701 9.92878 8.99766C9.79776 8.9883 9.66987 8.95324 9.5524 8.89446C9.31517 8.77575 9.13481 8.56766 9.051 8.31597C8.96719 8.06428 8.9868 7.7896 9.10551 7.55237C9.22422 7.31514 9.43231 7.13478 9.684 7.05097C10.358 6.82597 11.442 6.33797 12.438 5.78597C12.932 5.51197 13.384 5.23297 13.739 4.97797C14.123 4.70197 14.299 4.51897 14.345 4.44997Z" fill="#F68E79"/>
</svg>
