<svg width="21" height="23" viewBox="0 0 21 23" fill="none" xmlns="http://www.w3.org/2000/svg">
<path d="M16.9053 11.4975C19.4123 9.39565 21.0014 7.22446 20.2267 5.88525C19.4521 4.54604 16.7761 4.83613 13.7006 5.95767C13.134 2.7333 12.0497 0.269531 10.5024 0.269531C8.95499 0.269531 7.86969 2.73281 7.30265 5.9501C6.58653 5.68636 5.8557 5.46447 5.11383 5.28555C2.81451 4.74311 1.31442 4.95024 0.775452 5.88325C-0.00169653 7.22798 1.58991 9.39819 4.09889 11.501C1.58986 13.6038 -0.00169635 15.774 0.773499 17.1167C1.11632 17.7104 1.84777 18.0101 2.92657 18.0101C3.54391 18.0101 4.27482 17.9095 5.11183 17.7145C5.85369 17.5355 6.58453 17.3136 7.30065 17.0499C7.86715 20.2717 8.95104 22.7305 10.5004 22.7305C12.0497 22.7305 13.133 20.2672 13.7001 17.0499C14.4162 17.3136 15.147 17.5355 15.8889 17.7145C16.7259 17.912 17.4568 18.0101 18.0741 18.0101C19.1529 18.0101 19.8839 17.7084 20.2272 17.1167C20.7661 16.1832 20.195 14.7807 18.5758 13.0609C18.0498 12.5078 17.492 11.9858 16.9053 11.4975ZM16.0728 6.07173C17.8826 5.64497 19.2062 5.72847 19.53 6.28896C19.8537 6.84946 19.2635 8.03838 17.9897 9.39165C17.4508 9.95765 16.8778 10.4902 16.2739 10.9862C15.6028 10.4574 14.8719 9.93306 14.0957 9.42383C14.0419 8.51494 13.9525 7.6186 13.8293 6.76299C14.5623 6.487 15.3116 6.25616 16.0729 6.07178L16.0728 6.07173ZM11.9265 13.9719C11.4503 14.2467 10.9747 14.5071 10.4999 14.7531C10.026 14.5074 9.5504 14.247 9.07316 13.9718C8.59594 13.6967 8.13261 13.4152 7.68317 13.1273C7.63419 12.0439 7.63419 10.9588 7.68317 9.87534C8.13294 9.58778 8.59627 9.30625 9.07316 9.03076C9.55005 8.75527 10.0264 8.49469 10.5024 8.24902C10.9762 8.49469 11.4518 8.75511 11.9291 9.03027C12.4063 9.3054 12.8691 9.58708 13.3175 9.87529C13.3665 10.9587 13.3665 12.0438 13.3175 13.1273C12.8671 13.4149 12.4034 13.6964 11.9265 13.9719ZM13.2572 14.1151C13.2099 14.7455 13.1456 15.3578 13.0647 15.9455C12.5157 15.7218 11.9537 15.4714 11.3841 15.1975C11.6988 15.0279 12.0135 14.8522 12.3282 14.6706C12.6429 14.489 12.9526 14.3038 13.2572 14.1151ZM9.61559 15.1979C9.04655 15.4719 8.48449 15.7218 7.93502 15.946C7.85411 15.3578 7.78976 14.746 7.74249 14.1156C8.04946 14.3057 8.35896 14.4908 8.67101 14.6711C8.98302 14.8514 9.29788 15.0262 9.61559 15.1955V15.1979ZM6.85973 12.5839C6.33741 12.2279 5.83976 11.866 5.37072 11.5021C5.83976 11.1381 6.33741 10.7762 6.85973 10.4202C6.84866 10.7812 6.84296 11.1418 6.84264 11.5021C6.84231 11.8623 6.84801 12.2226 6.85973 12.5829V12.5839ZM7.74254 8.88696C7.78976 8.25659 7.85411 7.64429 7.93502 7.05664C8.5031 7.28885 9.06389 7.53848 9.61661 7.80518C9.29858 7.97607 8.98338 8.15151 8.67101 8.33149C8.35867 8.51147 8.04917 8.69663 7.74249 8.88696H7.74254ZM11.3841 7.80415C11.9532 7.53018 12.5152 7.28032 13.0647 7.0561C13.1474 7.66378 13.2116 8.27385 13.2572 8.88545C12.9532 8.69779 12.6437 8.51346 12.3287 8.33247C12.0137 8.15148 11.6988 7.9762 11.3841 7.80664L11.3841 7.80415ZM14.1405 10.4182C14.6628 10.7742 15.1605 11.1361 15.6295 11.5C15.1605 11.864 14.6628 12.226 14.1404 12.5819C14.1515 12.2209 14.1572 11.8603 14.1575 11.5C14.1579 11.1398 14.1522 10.7795 14.1404 10.4192L14.1405 10.4182ZM8.58346 3.96045C9.11837 2.18086 9.8528 1.0749 10.5003 1.0749C11.1478 1.0749 11.8818 2.18086 12.4171 3.96045C12.6383 4.71198 12.8132 5.47635 12.9409 6.24927C12.1366 6.57002 11.3172 6.94102 10.5033 7.34868C9.67384 6.93145 8.85441 6.56045 8.06066 6.24272C8.18827 5.47204 8.36286 4.70988 8.58346 3.9605V3.96045ZM3.01202 9.38965C1.7382 8.03638 1.14801 6.84751 1.47125 6.28696C1.79449 5.72642 3.11959 5.64351 4.92833 6.06982C5.68978 6.25403 6.43923 6.4847 7.17247 6.76055C7.04879 7.61514 6.95929 8.51494 6.90548 9.42485C6.1444 9.92759 5.41198 10.4524 4.7318 10.9878C4.12647 10.4907 3.5521 9.95697 3.01202 9.38965ZM4.92887 16.9303C3.1191 17.3571 1.79547 17.2736 1.47174 16.7131C1.14801 16.1526 1.73668 14.9652 3.01202 13.6124C3.55228 13.0451 4.12677 12.5114 4.73229 12.0143C5.41246 12.5497 6.14489 13.076 6.90602 13.5777C6.95978 14.4876 7.04928 15.3875 7.17291 16.2421C6.43898 16.5172 5.68887 16.747 4.92682 16.9303H4.92887ZM12.4192 19.0416C11.8843 20.8212 11.1499 21.9271 10.5024 21.9271C9.8549 21.9271 9.12091 20.8212 8.58556 19.0416C8.36492 18.292 8.19031 17.5297 8.06271 16.7588C8.85548 16.4421 9.67389 16.0716 10.5024 15.6529C11.3308 16.0696 12.1492 16.4401 12.942 16.7588C12.8136 17.5298 12.6381 18.2921 12.4167 19.0416H12.4192ZM19.5325 16.7136C19.2088 17.2741 17.8841 17.3575 16.0754 16.9308C15.3139 16.7466 14.5645 16.5159 13.8313 16.24C13.9549 15.3854 14.0444 14.4856 14.0982 13.5757C14.8593 13.0729 15.5918 12.5481 16.2719 12.0123C16.8767 12.5101 17.4503 13.0444 17.9897 13.6124C19.2635 14.9651 19.8527 16.1541 19.53 16.7146L19.5325 16.7136ZM9.37228 11.5744C9.37228 11.3535 9.43779 11.1375 9.56052 10.9538C9.68326 10.7702 9.85771 10.627 10.0618 10.5424C10.2659 10.4579 10.4905 10.4358 10.7072 10.4789C10.9239 10.522 11.1229 10.6284 11.2791 10.7846C11.4353 10.9408 11.5417 11.1398 11.5848 11.3565C11.6279 11.5732 11.6058 11.7978 11.5212 12.0019C11.4367 12.206 11.2935 12.3804 11.1098 12.5032C10.9261 12.6259 10.7102 12.6914 10.4893 12.6914C10.193 12.6914 9.90891 12.5737 9.69944 12.3642C9.48996 12.1548 9.37228 11.8707 9.37228 11.5744Z" fill="#F68E79"/>
</svg>
