<svg width="15" height="24" viewBox="0 0 15 24" fill="none" xmlns="http://www.w3.org/2000/svg">
<path d="M14.1774 22.7478L10.1848 18.0227V9.73996H10.6841C11.0984 9.73996 11.4339 9.40444 11.4339 8.99019C11.4339 8.57594 11.0984 8.24041 10.6841 8.24041H9.43501C9.02076 8.24041 8.68523 8.57594 8.68523 8.99019V18.3114C8.68518 18.497 8.75413 18.6761 8.87868 18.8138L11.9333 22.5004H2.43735L5.49194 18.8137C5.61649 18.6761 5.68543 18.497 5.68538 18.3114V8.99021C5.68538 8.57596 5.34986 8.24044 4.9356 8.24044H3.68645C3.2722 8.24044 2.93668 8.57596 2.93668 8.99021C2.93668 9.40446 3.2722 9.73999 3.68645 9.73999H4.1858V18.0228L0.193248 22.7479C0.096147 22.8555 0.032297 22.989 0.00941195 23.1321C-0.0134731 23.2753 0.00558608 23.422 0.0642868 23.5546C0.123182 23.6872 0.219276 23.7998 0.340919 23.8789C0.462561 23.9579 0.604528 24 0.749605 24H13.621C13.7661 24 13.9081 23.9579 14.0297 23.8789C14.1513 23.7998 14.2474 23.6872 14.3063 23.5546C14.4263 23.2839 14.3761 22.9675 14.1774 22.7479V22.7478ZM6.43553 7.49364C7.26178 7.49364 7.93133 6.82371 7.93133 5.99783C7.93133 5.1727 7.26178 4.5028 6.43553 4.5028C5.6089 4.5028 4.93973 5.1727 4.93973 5.99783C4.93973 6.82371 5.6089 7.49364 6.43553 7.49364ZM11.3203 5.26793C12.7816 5.26793 13.9663 4.08853 13.9663 2.63396C13.9663 1.1794 12.782 0 11.3203 0C9.85938 0 8.67436 1.1794 8.67436 2.63396C8.67436 4.08853 9.85938 5.26793 11.3203 5.26793ZM11.3087 1.49503C11.9333 1.49503 12.4412 2.00075 12.4412 2.62269C12.4412 3.24426 11.9333 3.75036 11.3087 3.75036C10.6841 3.75036 10.1762 3.24426 10.1762 2.62269C10.1765 2.00075 10.6841 1.49503 11.3087 1.49503Z" fill="#F68E79"/>
</svg>
