<svg width="17" height="13" viewBox="0 0 17 13" fill="none" xmlns="http://www.w3.org/2000/svg">
<path d="M2.344 2.64V5.44H6.104V7.216H2.344V10.176H6.584V12H0.104V0.815999H6.584V2.64H2.344ZM12.4756 12.112C11.697 12.112 10.993 11.9787 10.3636 11.712C9.74496 11.4453 9.25429 11.0613 8.89163 10.56C8.52896 10.0587 8.34229 9.46667 8.33163 8.784H10.7316C10.7636 9.24267 10.9236 9.60533 11.2116 9.872C11.5103 10.1387 11.9156 10.272 12.4276 10.272C12.9503 10.272 13.361 10.1493 13.6596 9.904C13.9583 9.648 14.1076 9.31733 14.1076 8.912C14.1076 8.58133 14.0063 8.30933 13.8036 8.096C13.601 7.88267 13.345 7.71733 13.0356 7.6C12.737 7.472 12.321 7.33333 11.7876 7.184C11.0623 6.97067 10.4703 6.76267 10.0116 6.56C9.56363 6.34667 9.17429 6.032 8.84363 5.616C8.52363 5.18933 8.36363 4.624 8.36363 3.92C8.36363 3.25867 8.52896 2.68267 8.85963 2.192C9.19029 1.70133 9.65429 1.328 10.2516 1.072C10.849 0.805333 11.5316 0.672 12.2996 0.672C13.4516 0.672 14.385 0.954666 15.0996 1.52C15.825 2.07467 16.225 2.85333 16.2996 3.856H13.8356C13.8143 3.472 13.649 3.15733 13.3396 2.912C13.041 2.656 12.641 2.528 12.1396 2.528C11.7023 2.528 11.3503 2.64 11.0836 2.864C10.8276 3.088 10.6996 3.41333 10.6996 3.84C10.6996 4.13867 10.7956 4.38933 10.9876 4.592C11.1903 4.784 11.4356 4.944 11.7236 5.072C12.0223 5.18933 12.4383 5.328 12.9716 5.488C13.697 5.70133 14.289 5.91467 14.7476 6.128C15.2063 6.34133 15.601 6.66133 15.9316 7.088C16.2623 7.51467 16.4276 8.07467 16.4276 8.768C16.4276 9.36533 16.273 9.92 15.9636 10.432C15.6543 10.944 15.201 11.3547 14.6036 11.664C14.0063 11.9627 13.297 12.112 12.4756 12.112Z" fill="#F68E79"/>
</svg>
