<svg width="16" height="16" viewBox="0 0 16 16" fill="none" xmlns="http://www.w3.org/2000/svg">
<path d="M15.2821 14.2175L14.2171 15.2825C14.0766 15.4222 13.8865 15.5006 13.6884 15.5006C13.4902 15.5006 13.3001 15.4222 13.1596 15.2825L4.24962 6.3875C4.00573 6.45816 3.75351 6.49599 3.49962 6.5C3.02209 6.49966 2.55155 6.38533 2.12711 6.16652C1.70267 5.94771 1.33659 5.63075 1.05931 5.24197C0.782038 4.8532 0.601572 4.40385 0.532923 3.93129C0.464273 3.45872 0.509423 2.9766 0.664618 2.525L2.56962 4.43L2.96712 4.0325L4.03212 2.9675L4.42962 2.57L2.52462 0.665C2.97622 0.509805 3.45834 0.464655 3.9309 0.533305C4.40347 0.601954 4.85281 0.78242 5.24159 1.0597C5.63036 1.33697 5.94733 1.70305 6.16614 2.12749C6.38495 2.55193 6.49928 3.02248 6.49962 3.5C6.49561 3.75389 6.45777 4.00611 6.38712 4.25L15.2821 13.16C15.4218 13.3005 15.5002 13.4906 15.5002 13.6887C15.5002 13.8869 15.4218 14.077 15.2821 14.2175ZM0.717118 13.16C0.57743 13.3005 0.499023 13.4906 0.499023 13.6887C0.499023 13.8869 0.57743 14.077 0.717118 14.2175L1.78212 15.2825C1.92264 15.4222 2.11273 15.5006 2.31087 15.5006C2.50901 15.5006 2.6991 15.4222 2.83962 15.2825L6.94212 11.1875L4.81962 9.065M13.9996 0.5L10.9996 2V3.5L9.37212 5.1275L10.8721 6.6275L12.4996 5H13.9996L15.4996 2L13.9996 0.5Z" fill="#F68E79"/>
</svg>
