<svg
        width="18"
        height="18"
        viewBox="0 0 18 18"
        fill="none"
        xmlns="http://www.w3.org/2000/svg"
      >
        <path
          d="M17.4577 6.67304L10.7583 4.87659L9.58561 0.501543C9.48751 0.136131 9.09513 -0.076276 8.70994 0.0254273L0.541756 2.2143C0.156566 2.3169 -0.0756276 2.69851 0.0224698 3.06393L2.92939 13.9102C3.02749 14.2756 3.41898 14.4889 3.80327 14.3845L7.05488 13.5142L6.61209 15.1684C6.514 15.5338 6.74619 15.9154 7.13138 16.0171L14.4302 17.9738C14.8154 18.0773 15.206 17.8649 15.305 17.4977L17.9779 7.52177C18.0751 7.15636 17.8429 6.77475 17.4577 6.67304ZM1.46963 3.26733L8.51644 1.38087L11.1246 11.1174L4.07776 13.0038L1.46963 3.26733ZM14.1098 16.6166L7.97736 14.9398L8.45974 13.138L11.9705 12.1956C12.3557 12.0939 12.5897 11.7123 12.4907 11.3469L11.1336 6.28243L16.4857 7.75038L14.1098 16.6166Z"
          fill="#142B33"
        />
      </svg>