<svg
        width="24"
        height="18"
        viewBox="0 0 24 18"
        fill="none"
        xmlns="http://www.w3.org/2000/svg"
      >
        <path
          d="M0 0V1.8H19.8V16.2H7.2V18H23.4V16.2H21.6V0H0ZM3.6018 2.7C2.64788 2.70332 1.73394 3.08361 1.05924 3.75797C0.384544 4.43233 0.00379475 5.34608 0 6.3C0 8.2791 1.6236 9.9 3.6018 9.9C4.55524 9.89621 5.46853 9.51564 6.14255 8.84128C6.81658 8.16692 7.19668 7.25345 7.2 6.3C7.2 4.3227 5.5782 2.7 3.6018 2.7ZM9 3.6V5.4H13.5V3.6H9ZM15.3 3.6V5.4H18V3.6H15.3ZM3.6018 4.5C4.6044 4.5 5.4 5.2947 5.4 6.3C5.4 7.308 4.6053 8.1 3.6018 8.1C2.5938 8.1 1.8 7.308 1.8 6.3C1.8 5.2947 2.5947 4.5 3.6018 4.5ZM9 7.2V9H18V7.2H9ZM0 10.8V18H1.8V12.6H4.5V18H6.3V13.1922L8.1576 14.175C8.6841 14.454 9.3168 14.4531 9.8424 14.175V14.1768L13.0194 12.4965L12.1797 10.9035L9.0018 12.5838L6.2154 11.1132C5.82652 10.9078 5.39341 10.8002 4.9536 10.8H0Z"
          fill="#142B33"
        />
      </svg>