<svg
        width="19"
        height="18"
        viewBox="0 0 19 18"
        fill="none"
        xmlns="http://www.w3.org/2000/svg"
      >
        <path
          d="M18.227 2.91398L9.58654 0.0338382C9.43992 -0.0112794 9.28313 -0.0112794 9.13651 0.0338382L0.505098 2.91398H0.487097L0.397092 2.95898H0.388092L0.298088 3.01298C0.298088 3.02198 0.289087 3.02198 0.280087 3.03098L0.208083 3.09399L0.14508 3.16599C0.14508 3.17499 0.13608 3.17499 0.13608 3.18399L0.0820772 3.26499C0.0820772 3.27399 0.0820772 3.27399 0.0730768 3.283L0.037075 3.364L0.0100738 3.463V3.49C0.00119614 3.52527 -0.00184429 3.56176 0.00107335 3.59801V10.7984C0.00107335 10.9893 0.0769339 11.1725 0.211967 11.3075C0.346999 11.4425 0.530143 11.5184 0.721108 11.5184C0.912073 11.5184 1.09522 11.4425 1.23025 11.3075C1.36528 11.1725 1.44114 10.9893 1.44114 10.7984V4.59706L4.46529 5.60511C3.89715 6.51451 3.59762 7.56597 3.60125 8.63825C3.60158 9.61346 3.84949 10.5726 4.32176 11.4258C4.79402 12.2791 5.47517 12.9984 6.30138 13.5165C4.58445 14.166 3.1187 15.3449 2.11618 16.8827C2.01399 17.0442 1.97937 17.2395 2.01978 17.4264C2.06018 17.6132 2.17237 17.7768 2.33219 17.8817C2.41061 17.9337 2.49857 17.9695 2.59097 17.9873C2.68336 18.005 2.77835 18.0042 2.87044 17.9849C2.96253 17.9657 3.04988 17.9284 3.12743 17.8751C3.20498 17.8218 3.2712 17.7537 3.32223 17.6747C3.97578 16.668 4.87061 15.8406 5.92535 15.2679C6.9801 14.6951 8.16129 14.3951 9.36152 14.3951C10.5618 14.3951 11.743 14.6951 12.7977 15.2679C13.8524 15.8406 14.7473 16.668 15.4008 17.6747C15.4665 17.7745 15.5561 17.8564 15.6614 17.9129C15.7666 17.9695 15.8843 17.999 16.0038 17.9987C16.1418 18.0002 16.2768 17.9593 16.3909 17.8817C16.5507 17.7768 16.6629 17.6132 16.7033 17.4264C16.7437 17.2395 16.7091 17.0442 16.6069 16.8827C15.6044 15.3449 14.1386 14.166 12.4217 13.5165C13.2479 12.9984 13.929 12.2791 14.4013 11.4258C14.8736 10.5726 15.1215 9.61346 15.1218 8.63825C15.1254 7.56597 14.8259 6.51451 14.2578 5.60511L18.227 4.28204C18.371 4.23469 18.4964 4.14307 18.5854 4.02024C18.6743 3.89742 18.7222 3.74965 18.7222 3.59801C18.7222 3.44637 18.6743 3.2986 18.5854 3.17578C18.4964 3.05295 18.371 2.96133 18.227 2.91398ZM13.6817 8.63825C13.6817 9.78404 13.2266 10.8829 12.4164 11.6931C11.6062 12.5033 10.5073 12.9585 9.36152 12.9585C8.21573 12.9585 7.11687 12.5033 6.30668 11.6931C5.49648 10.8829 5.04132 9.78404 5.04132 8.63825C5.04305 7.71637 5.33601 6.8186 5.87836 6.07313L9.13651 7.16218C9.28267 7.21026 9.44038 7.21026 9.58654 7.16218L12.8447 6.07313C13.387 6.8186 13.68 7.71637 13.6817 8.63825ZM12.8447 4.56106H12.8357L9.36152 5.72211L5.88736 4.56106H5.87836L2.99822 3.59801L9.36152 1.47391L15.7248 3.59801L12.8447 4.56106Z"
          fill="#142B33"
        />
      </svg>