 <svg
        width="11"
        height="18"
        viewBox="0 0 11 18"
        fill="none"
        xmlns="http://www.w3.org/2000/svg"
      >
        <path
          d="M4.30694 9.33158C5.03903 8.01474 6.44616 7.2379 7.26381 6.07263C8.129 4.85053 7.64411 2.56737 5.19115 2.56737C3.58437 2.56737 2.79524 3.78 2.46247 4.78421L0 3.75158C0.67504 1.73368 2.51001 0 5.18164 0C7.41593 0 8.94666 1.01368 9.72628 2.28316C10.3918 3.37263 10.7816 5.40947 9.7548 6.92526C8.61389 8.60211 7.52052 9.11368 6.93104 10.1937C6.69335 10.6295 6.59828 10.9137 6.59828 12.3158H3.85058C3.84107 11.5768 3.72698 10.3737 4.30694 9.33158ZM7.09267 16.1053C7.09267 17.1474 6.23699 18 5.19115 18C4.14532 18 3.28963 17.1474 3.28963 16.1053C3.28963 15.0632 4.14532 14.2105 5.19115 14.2105C6.23699 14.2105 7.09267 15.0632 7.09267 16.1053Z"
          fill="#142B33"
        />
      </svg>