<svg
        width="18"
        height="18"
        viewBox="0 0 18 18"
        fill="none"
        xmlns="http://www.w3.org/2000/svg"
      >
        <path
          d="M14.91 13.8525C15.24 13.3275 15.435 12.72 15.435 12.06C15.435 10.1925 13.9275 8.685 12.06 8.685C10.1925 8.685 8.685 10.1925 8.685 12.06C8.685 13.9275 10.1925 15.435 12.0525 15.435C12.7125 15.435 13.3275 15.24 13.845 14.91L16.185 17.25L17.25 16.185L14.91 13.8525ZM12.06 13.935C11.5627 13.935 11.0858 13.7375 10.7342 13.3858C10.3825 13.0342 10.185 12.5573 10.185 12.06C10.185 11.5627 10.3825 11.0858 10.7342 10.7342C11.0858 10.3825 11.5627 10.185 12.06 10.185C12.5573 10.185 13.0342 10.3825 13.3858 10.7342C13.7375 11.0858 13.935 11.5627 13.935 12.06C13.935 12.5573 13.7375 13.0342 13.3858 13.3858C13.0342 13.7375 12.5573 13.935 12.06 13.935ZM11.79 7.56C11.235 7.575 10.7025 7.695 10.215 7.8975L9.8025 7.275L6.9525 11.91L4.695 9.27L1.9725 13.6275L0.75 12.75L4.5 6.75L6.75 9.375L9.75 4.5L11.79 7.56ZM13.7325 7.935C13.2525 7.725 12.735 7.5975 12.195 7.5675L16.035 1.5L17.25 2.385L13.7325 7.935Z"
          fill="#142B33"
        />
      </svg>